<?xml version="1.0" encoding="UTF-8"?>
<svg xmlns="http://www.w3.org/2000/svg" width="1000" height="600" viewBox="0 0 1000 600" role="img" aria-label="Project 2 placeholder image">
  <defs>
    <linearGradient id="bg" x1="0" x2="1" y1="0" y2="1">
      <stop offset="0" stop-color="#0b1220"/>
      <stop offset="1" stop-color="#0f1c33"/>
    </linearGradient>
    <linearGradient id="accent" x1="0" x2="1" y1="0" y2="0">
      <stop offset="0" stop-color="#22d3ee"/>
      <stop offset="1" stop-color="#60a5fa"/>
    </linearGradient>
  </defs>

  <rect width="1000" height="600" fill="url(#bg)"/>
  <rect x="60" y="60" width="880" height="480" rx="26" fill="#0b1325" opacity="0.62" stroke="#2b3a57"/>

  <g transform="translate(110 140)">
    <text x="0" y="0" fill="#e6edf7" font-size="36" font-family="system-ui, -apple-system, Segoe UI, Roboto, Arial, sans-serif" font-weight="800">Project 2 Placeholder</text>
    <text x="0" y="38" fill="#b6c2d6" font-size="18" font-family="system-ui, -apple-system, Segoe UI, Roboto, Arial, sans-serif">Replace with a figure (heatmap, distribution, results)</text>

    <rect x="0" y="78" width="560" height="14" rx="7" fill="url(#accent)"/>

    <g transform="translate(0 140)">
      <rect x="0" y="0" width="560" height="260" rx="16" fill="#0f1c33" stroke="#2b3a57"/>
      <g opacity="0.9">
        <rect x="20" y="20" width="90" height="90" fill="#1a2b46"/>
        <rect x="120" y="20" width="90" height="90" fill="#203454"/>
        <rect x="220" y="20" width="90" height="90" fill="#2b3a57"/>
        <rect x="320" y="20" width="90" height="90" fill="#203454"/>
        <rect x="420" y="20" width="90" height="90" fill="#1a2b46"/>

        <rect x="20" y="120" width="90" height="90" fill="#203454"/>
        <rect x="120" y="120" width="90" height="90" fill="#2b3a57"/>
        <rect x="220" y="120" width="90" height="90" fill="#22d3ee" opacity="0.55"/>
        <rect x="320" y="120" width="90" height="90" fill="#2b3a57"/>
        <rect x="420" y="120" width="90" height="90" fill="#203454"/>

        <rect x="20" y="220" width="90" height="20" fill="url(#accent)"/>
        <rect x="120" y="220" width="250" height="20" fill="#2b3a57"/>
        <rect x="380" y="220" width="130" height="20" fill="#1a2b46"/>
      </g>
    </g>
  </g>

  <text x="110" y="510" fill="#9fb0c9" font-size="14" font-family="ui-monospace, SFMono-Regular, Menlo, Monaco, Consolas, Liberation Mono, monospace">SVG placeholder</text>
</svg>
