<?xml version="1.0" encoding="UTF-8"?>
<svg xmlns="http://www.w3.org/2000/svg" width="1000" height="600" viewBox="0 0 1000 600" role="img" aria-label="Project 3 placeholder image">
  <defs>
    <linearGradient id="bg" x1="0" x2="1" y1="0" y2="1">
      <stop offset="0" stop-color="#0b1220"/>
      <stop offset="1" stop-color="#0f1c33"/>
    </linearGradient>
    <linearGradient id="accent" x1="0" x2="1" y1="0" y2="0">
      <stop offset="0" stop-color="#22d3ee"/>
      <stop offset="1" stop-color="#60a5fa"/>
    </linearGradient>
  </defs>

  <rect width="1000" height="600" fill="url(#bg)"/>
  <rect x="60" y="60" width="880" height="480" rx="26" fill="#0b1325" opacity="0.62" stroke="#2b3a57"/>

  <g transform="translate(110 140)">
    <text x="0" y="0" fill="#e6edf7" font-size="36" font-family="system-ui, -apple-system, Segoe UI, Roboto, Arial, sans-serif" font-weight="800">Project 3 Placeholder</text>
    <text x="0" y="38" fill="#b6c2d6" font-size="18" font-family="system-ui, -apple-system, Segoe UI, Roboto, Arial, sans-serif">Replace with an architecture sketch or system diagram</text>

    <rect x="0" y="78" width="560" height="14" rx="7" fill="url(#accent)"/>

    <g transform="translate(0 140)" stroke="#2b3a57" stroke-width="2" fill="#0f1c33" opacity="0.95">
      <rect x="0" y="0" width="180" height="90" rx="16"/>
      <rect x="240" y="0" width="180" height="90" rx="16"/>
      <rect x="480" y="0" width="180" height="90" rx="16"/>

      <rect x="120" y="160" width="180" height="90" rx="16"/>
      <rect x="360" y="160" width="180" height="90" rx="16"/>

      <path d="M180 45 H240"/>
      <path d="M420 45 H480"/>
      <path d="M210 90 V160"/>
      <path d="M450 90 V160"/>

      <g fill="#b6c2d6" stroke="none" font-family="ui-monospace, SFMono-Regular, Menlo, Monaco, Consolas, Liberation Mono, monospace" font-size="14">
        <text x="26" y="52">ingest</text>
        <text x="266" y="52">model</text>
        <text x="506" y="52">eval</text>
        <text x="146" y="212">logs</text>
        <text x="386" y="212">report</text>
      </g>

      <circle cx="210" cy="90" r="7" fill="#22d3ee" stroke="none"/>
      <circle cx="450" cy="90" r="7" fill="#22d3ee" stroke="none"/>
    </g>
  </g>

  <text x="110" y="510" fill="#9fb0c9" font-size="14" font-family="ui-monospace, SFMono-Regular, Menlo, Monaco, Consolas, Liberation Mono, monospace">SVG placeholder</text>
</svg>
